<?xml version="1.0" encoding="utf-8"?>
<!DOCTYPE svg PUBLIC "-//W3C//DTD SVG 1.1//EN" "http://www.w3.org/Graphics/SVG/1.1/DTD/svg11.dtd">
<svg xmlns="http://www.w3.org/2000/svg" xmlns:xlink="http://www.w3.org/1999/xlink" version="1.1" baseProfile="full" width="198.4" height="32" viewBox="0 0 198.40 32.00" enable-background="new 0 0 198.40 32.00" xml:space="preserve">
	<g>
		<path fill="#FFFFFF" fill-opacity="1" stroke-width="0.32" stroke-linejoin="round" d="M 19.5007,18.0425L 15.0909,26.1712C 14.9027,26.5197 14.6774,26.8101 14.4151,27.0424C 14.1527,27.2747 13.7892,27.3909 13.3246,27.3909C 12.9001,27.3909 12.5466,27.2717 12.2642,27.0334C 11.9818,26.7951 11.7465,26.5137 11.5583,26.1893L 6.90216,18.1928C 6.9783,19.883 7.04837,21.4411 7.11246,22.8669C 7.13651,23.4797 7.16052,24.0925 7.18457,24.7053C 7.20862,25.3181 7.23364,25.8879 7.25967,26.4146C 7.28571,26.9412 7.30774,27.4079 7.32574,27.8145C 7.34378,28.2209 7.3588,28.5183 7.37079,28.7066C 7.38281,28.8948 7.37982,29.064 7.36182,29.2143C 7.34378,29.3644 7.29773,29.4926 7.22363,29.5988C 7.14954,29.7049 7.04337,29.7859 6.90518,29.842C 6.767,29.8981 6.57776,29.9262 6.33743,29.9262L 4.27676,29.9262C 4.04846,29.9262 3.83817,29.8541 3.6459,29.7099C 3.45367,29.5657 3.35754,29.2813 3.35754,28.8568L 3.35754,4.9754C 3.35754,4.73511 3.3916,4.49683 3.45966,4.2605C 3.52777,4.02417 3.6459,3.8089 3.81412,3.61469C 3.98236,3.42041 4.20465,3.26318 4.48102,3.14307C 4.75739,3.02289 5.09583,2.96283 5.49634,2.96283L 11.5403,2.96283C 12.0289,2.96283 12.4485,3.04791 12.799,3.21808C 13.1494,3.38837 13.4488,3.66772 13.6971,4.05621L 18.7498,12.0707L 22.1322,5.59424C 22.3324,5.20575 22.5257,4.85229 22.7119,4.53387C 22.8982,4.21539 23.1195,3.94012 23.3758,3.70776C 23.6321,3.47552 23.9516,3.29321 24.334,3.16107C 24.7166,3.02887 25.2082,2.96283 25.809,2.96283L 30.8015,2.96283C 31.2782,2.96283 31.6887,3.02588 32.0332,3.15204C 32.3776,3.27826 32.659,3.44745 32.8773,3.65973C 33.0956,3.87201 33.2548,4.12231 33.3549,4.41071C 33.455,4.69904 33.5051,5.01147 33.5051,5.3479L 33.5051,27.3188C 33.5051,27.7033 33.4741,28.0557 33.412,28.3762C 33.3499,28.6966 33.2217,28.9719 33.0275,29.2022C 32.8333,29.4326 32.5579,29.6108 32.2014,29.737C 31.8449,29.8631 31.3783,29.9262 30.8015,29.9262L 22.1322,29.9262C 21.6155,29.9262 21.189,29.8701 20.8525,29.758C 20.5161,29.6458 20.2477,29.4826 20.0474,29.2683C 19.8472,29.054 19.706,28.7847 19.6239,28.4603C 19.5418,28.1358 19.5007,27.7554 19.5007,27.3188L 19.5007,18.0425 Z "/>
		<path fill="#FFFFFF" fill-opacity="1" stroke-width="0.32" stroke-linejoin="round" d="M 36.8094,5.59424C 36.8094,5.15771 36.8465,4.77618 36.9206,4.44977C 36.9947,4.12329 37.1379,3.85101 37.3502,3.63263C 37.5624,3.41437 37.8568,3.24823 38.2333,3.13403C 38.6098,3.01984 39.0984,2.96283 39.6992,2.96283L 48.0742,2.96283C 48.7992,2.96283 49.3519,3.06989 49.7324,3.28424C 50.1129,3.49854 50.3823,3.76489 50.5405,4.08325C 50.6987,4.40167 50.7838,4.73907 50.7958,5.09564C 50.8078,5.45209 50.8138,5.78052 50.8138,6.08087L 50.8138,26.8862C 50.8138,27.1746 50.7888,27.494 50.7387,27.8445C 50.6887,28.1949 50.5635,28.5234 50.3632,28.8298C 50.163,29.1362 49.8566,29.3955 49.444,29.6077C 49.0315,29.8201 48.4608,29.9262 47.7318,29.9262L 39.6992,29.9262C 39.0984,29.9262 38.6098,29.8701 38.2333,29.758C 37.8568,29.6458 37.5624,29.4826 37.3502,29.2683C 37.1379,29.054 36.9947,28.7847 36.9206,28.4603C 36.8465,28.1358 36.8094,27.7554 36.8094,27.3188L 36.8094,5.59424 Z "/>
		<path fill="#FFFFFF" fill-opacity="1" stroke-width="0.32" stroke-linejoin="round" d="M 58.5039,9.42133C 58.6401,8.05951 59.0086,6.92194 59.6094,6.00879C 60.2101,5.09564 60.9551,4.36664 61.8443,3.82196C 62.7335,3.27716 63.7228,2.89166 64.8122,2.66547C 65.9016,2.43915 67.0031,2.32593 68.1165,2.32593C 69.0297,2.32593 69.9239,2.36401 70.799,2.44012C 71.6742,2.51617 72.4812,2.60431 73.2202,2.70441C 73.9592,2.80463 74.598,2.90472 75.1367,3.00488C 75.6754,3.10498 76.0689,3.17914 76.3173,3.22711C 76.4695,3.26715 76.5456,3.33734 76.5456,3.43744C 76.5456,3.46143 76.5335,3.53558 76.5096,3.65973L 76.2271,5.01147C 76.2031,5.09961 76.1691,5.15265 76.125,5.17065C 76.081,5.18872 76.0389,5.19775 75.9989,5.19775C 75.4502,5.19775 74.9756,5.29181 74.575,5.48004C 74.1745,5.6684 73.843,5.9317 73.5807,6.27008C 73.3184,6.60858 73.1181,7.00909 72.9799,7.47168C 72.8417,7.93433 72.7466,8.43402 72.6945,8.9707L 71.571,22.6206C 71.4709,23.722 71.1896,24.7614 70.727,25.7387C 70.2643,26.716 69.6195,27.5671 68.7924,28.2921C 67.9653,29.017 66.951,29.5928 65.7494,30.0193C 64.5479,30.4459 63.172,30.6592 61.622,30.6592C 60.5806,30.6592 59.5783,30.6091 58.6151,30.509C 57.6518,30.4089 56.7756,30.2896 55.9866,30.1514C 55.1976,30.0132 54.5187,29.8781 53.95,29.7459C 53.3812,29.6138 52.9706,29.5176 52.7183,29.4576C 52.5701,29.4175 52.496,29.3474 52.496,29.2473C 52.496,29.2353 52.5081,29.1672 52.532,29.043L 52.8505,27.6191C 52.8745,27.531 52.9086,27.477 52.9526,27.457C 52.9967,27.437 53.0387,27.4269 53.0788,27.4269C 53.6275,27.4269 54.1371,27.3458 54.6078,27.1836C 55.0784,27.0214 55.489,26.753 55.8394,26.3785C 56.1898,26.0041 56.4803,25.5164 56.7106,24.9156C 56.9409,24.3149 57.1,23.5759 57.1882,22.6987L 58.5039,9.42133 Z "/>
		<path fill="#FFFFFF" fill-opacity="1" stroke-width="0.32" stroke-linejoin="round" d="M 82.7277,9.42133C 82.8639,8.05951 83.2324,6.92194 83.8332,6.00879C 84.4339,5.09564 85.1789,4.36664 86.0681,3.82196C 86.9572,3.27716 87.9466,2.89166 89.036,2.66547C 90.1254,2.43915 91.2268,2.32593 92.3403,2.32593C 93.2535,2.32593 94.1477,2.36401 95.0228,2.44012C 95.898,2.51617 96.705,2.60431 97.444,2.70441C 98.183,2.80463 98.8218,2.90472 99.3606,3.00488C 99.8993,3.10498 100.293,3.17914 100.541,3.22711C 100.693,3.26715 100.769,3.33734 100.769,3.43744C 100.769,3.46143 100.757,3.53558 100.733,3.65973L 100.451,5.01147C 100.427,5.09961 100.393,5.15265 100.349,5.17065C 100.305,5.18872 100.263,5.19775 100.223,5.19775C 99.6739,5.19775 99.1993,5.29181 98.7988,5.48004C 98.3983,5.6684 98.0669,5.9317 97.8045,6.27008C 97.5421,6.60858 97.3419,7.00909 97.2037,7.47168C 97.0655,7.93433 96.9704,8.43402 96.9183,8.9707L 95.7948,22.6206C 95.6947,23.722 95.4134,24.7614 94.9508,25.7387C 94.4881,26.716 93.8433,27.5671 93.0162,28.2921C 92.1891,29.017 91.1748,29.5928 89.9732,30.0193C 88.7716,30.4459 87.3958,30.6592 85.8458,30.6592C 84.8044,30.6592 83.8021,30.6091 82.8388,30.509C 81.8756,30.4089 80.9994,30.2896 80.2104,30.1514C 79.4214,30.0132 78.7425,29.8781 78.1737,29.7459C 77.6049,29.6138 77.1944,29.5176 76.9421,29.4576C 76.7939,29.4175 76.7198,29.3474 76.7198,29.2473C 76.7198,29.2353 76.7318,29.1672 76.7558,29.043L 77.0743,27.6191C 77.0983,27.531 77.1324,27.477 77.1764,27.457C 77.2205,27.437 77.2625,27.4269 77.3026,27.4269C 77.8513,27.4269 78.3609,27.3458 78.8316,27.1836C 79.3022,27.0214 79.7127,26.753 80.0632,26.3785C 80.4137,26.0041 80.7041,25.5164 80.9344,24.9156C 81.1646,24.3149 81.3238,23.5759 81.412,22.6987L 82.7277,9.42133 Z "/>
		<path fill="#FFFFFF" fill-opacity="1" stroke-width="0.32" stroke-linejoin="round" d="M 102.56,5.59424C 102.56,5.15771 102.597,4.77618 102.671,4.44977C 102.745,4.12329 102.888,3.85101 103.1,3.63263C 103.313,3.41437 103.607,3.24823 103.984,3.13403C 104.36,3.01984 104.849,2.96283 105.45,2.96283L 113.825,2.96283C 114.549,2.96283 115.102,3.06989 115.483,3.28424C 115.863,3.49854 116.133,3.76489 116.291,4.08325C 116.449,4.40167 116.534,4.73907 116.546,5.09564C 116.558,5.45209 116.564,5.78052 116.564,6.08087L 116.564,26.8862C 116.564,27.1746 116.539,27.494 116.489,27.8445C 116.439,28.1949 116.314,28.5234 116.113,28.8298C 115.913,29.1362 115.607,29.3955 115.194,29.6077C 114.782,29.8201 114.211,29.9262 113.482,29.9262L 105.45,29.9262C 104.849,29.9262 104.36,29.8701 103.984,29.758C 103.607,29.6458 103.313,29.4826 103.1,29.2683C 102.888,29.054 102.745,28.7847 102.671,28.4603C 102.597,28.1358 102.56,27.7554 102.56,27.3188L 102.56,5.59424 Z "/>
		<path fill="#FFFFFF" fill-opacity="1" stroke-width="0.32" stroke-linejoin="round" d="M 131.782,30.6592C 130.781,30.6592 129.776,30.571 128.769,30.3948C 127.762,30.2186 126.795,29.9182 125.867,29.4937C 124.94,29.0691 124.076,28.5034 123.275,27.7964C 122.474,27.0894 121.776,26.2073 121.181,25.1499C 120.586,24.0925 120.121,22.8409 119.784,21.395C 119.448,19.949 119.28,18.2689 119.28,16.3544C 119.28,14.4519 119.448,12.7747 119.784,11.3228C 120.121,9.87085 120.586,8.61523 121.181,7.55585C 121.776,6.4964 122.474,5.61627 123.275,4.91534C 124.076,4.21442 124.94,3.65472 125.867,3.23615C 126.795,2.81763 127.762,2.52124 128.769,2.34698C 129.776,2.17279 130.781,2.08563 131.782,2.08563C 132.783,2.08563 133.791,2.17279 134.804,2.34698C 135.817,2.52124 136.788,2.81763 137.715,3.23615C 138.642,3.65472 139.506,4.21442 140.307,4.91534C 141.108,5.61627 141.802,6.4964 142.389,7.55585C 142.976,8.61523 143.438,9.87085 143.777,11.3228C 144.115,12.7747 144.285,14.4519 144.285,16.3544C 144.285,18.2568 144.115,19.9341 143.777,21.386C 143.438,22.8379 142.976,24.0925 142.389,25.1499C 141.802,26.2073 141.108,27.0894 140.307,27.7964C 139.506,28.5034 138.642,29.0691 137.715,29.4937C 136.788,29.9182 135.817,30.2186 134.804,30.3948C 133.791,30.571 132.783,30.6592 131.782,30.6592 Z M 133.47,16.3544C 133.47,17.9164 133.586,19.2231 133.819,20.2745C 134.051,21.3259 134.361,22.171 134.75,22.8098C 135.139,23.4487 135.573,23.9023 136.054,24.1707C 136.534,24.439 137.031,24.5732 137.544,24.5732C 138.056,24.5732 138.557,24.439 139.046,24.1707C 139.534,23.9023 139.97,23.4487 140.352,22.8098C 140.735,22.171 141.041,21.3259 141.272,20.2745C 141.502,19.2231 141.617,17.9164 141.617,16.3544C 141.617,14.7883 141.502,13.4796 141.272,12.4282C 141.041,11.3769 140.735,10.5317 140.352,9.89288C 139.97,9.25409 139.534,8.80048 139.046,8.53217C 138.557,8.26373 138.056,8.12958 137.544,8.12958C 137.031,8.12958 136.534,8.26373 136.054,8.53217C 135.573,8.80048 135.139,9.25409 134.75,9.89288C 134.361,10.5317 134.051,11.3769 133.819,12.4282C 133.586,13.4796 133.47,14.7883 133.47,16.3544 Z "/>
		<path fill="#FFFFFF" fill-opacity="1" stroke-width="0.32" stroke-linejoin="round" d="M 168.695,2.96283C 168.931,2.96283 169.143,3.0379 169.331,3.18805C 169.52,3.33832 169.614,3.62769 169.614,4.05621L 169.614,28.5383C 169.614,29.4636 169.175,29.9262 168.298,29.9262L 161.785,29.9262C 161.373,29.9262 161.032,29.845 160.761,29.6829C 160.491,29.5207 160.249,29.3334 160.037,29.1211L 150.425,19.0759C 150.537,20.7021 150.651,22.1981 150.767,23.5638C 150.803,24.1486 150.846,24.7293 150.896,25.3062C 150.946,25.8829 150.99,26.4216 151.028,26.9223C 151.066,27.4229 151.1,27.8605 151.131,28.2349C 151.161,28.6094 151.182,28.8788 151.194,29.043C 151.222,29.2553 151.189,29.4556 151.094,29.6438C 151,29.832 150.783,29.9262 150.443,29.9262L 148.082,29.9262C 147.853,29.9262 147.643,29.8541 147.451,29.7099C 147.258,29.5657 147.162,29.2813 147.162,28.8568L 147.162,4.35663C 147.162,3.42743 147.675,2.96283 148.7,2.96283L 155.045,2.96283C 155.521,2.96283 155.919,3.06293 156.237,3.26318C 156.556,3.46344 156.877,3.72778 157.202,4.05621L 166.345,13.1221C 166.221,11.6321 166.109,10.2563 166.009,8.99469C 165.961,8.45404 165.915,7.91431 165.871,7.37555C 165.827,6.83691 165.786,6.33325 165.748,5.86456C 165.71,5.396 165.675,4.98651 165.643,4.63599C 165.611,4.28558 165.588,4.02222 165.577,3.84595C 165.552,3.64569 165.593,3.44843 165.7,3.25415C 165.806,3.05988 166.053,2.96283 166.442,2.96283L 168.695,2.96283 Z "/>
		<path fill="#FFFFFF" fill-opacity="1" stroke-width="0.32" stroke-linejoin="round" d="M 177.316,9.42133C 177.452,8.05951 177.821,6.92194 178.421,6.00879C 179.022,5.09564 179.767,4.36664 180.656,3.82196C 181.545,3.27716 182.535,2.89166 183.624,2.66547C 184.714,2.43915 185.815,2.32593 186.928,2.32593C 187.842,2.32593 188.736,2.36401 189.611,2.44012C 190.486,2.51617 191.293,2.60431 192.032,2.70441C 192.771,2.80463 193.41,2.90472 193.949,3.00488C 194.487,3.10498 194.881,3.17914 195.129,3.22711C 195.281,3.26715 195.358,3.33734 195.358,3.43744C 195.358,3.46143 195.346,3.53558 195.322,3.65973L 195.039,5.01147C 195.015,5.09961 194.981,5.15265 194.937,5.17065C 194.893,5.18872 194.851,5.19775 194.811,5.19775C 194.262,5.19775 193.788,5.29181 193.387,5.48004C 192.986,5.6684 192.655,5.9317 192.393,6.27008C 192.13,6.60858 191.93,7.00909 191.792,7.47168C 191.654,7.93433 191.559,8.43402 191.507,8.9707L 190.383,22.6206C 190.283,23.722 190.002,24.7614 189.539,25.7387C 189.076,26.716 188.431,27.5671 187.604,28.2921C 186.777,29.017 185.763,29.5928 184.561,30.0193C 183.36,30.4459 181.984,30.6592 180.434,30.6592C 179.393,30.6592 178.39,30.6091 177.427,30.509C 176.464,30.4089 175.588,30.2896 174.799,30.1514C 174.01,30.0132 173.331,29.8781 172.762,29.7459C 172.193,29.6138 171.783,29.5176 171.53,29.4576C 171.382,29.4175 171.308,29.3474 171.308,29.2473C 171.308,29.2353 171.32,29.1672 171.344,29.043L 171.662,27.6191C 171.686,27.531 171.721,27.477 171.765,27.457C 171.809,27.437 171.851,27.4269 171.891,27.4269C 172.439,27.4269 172.949,27.3458 173.42,27.1836C 173.89,27.0214 174.301,26.753 174.651,26.3785C 175.002,26.0041 175.292,25.5164 175.523,24.9156C 175.753,24.3149 175.912,23.5759 176,22.6987L 177.316,9.42133 Z "/>
	</g>
</svg>
